HIERARCHY
ROOT Hips
{
    OFFSET   0.000000   0.000000   0.000000
    CHANNELS 6 Xposition Yposition Zposition Zrotation Xrotation Yrotation
    JOINT Chest
    {
        OFFSET   0.000000   8.007230   0.000000
        CHANNELS 3 Zrotation Xrotation Yrotation
        JOINT Chest2
        {
            OFFSET   0.000000  22.077100   0.000000
            CHANNELS 3 Zrotation Xrotation Yrotation
            JOINT Neck
            {
                OFFSET   0.000000  23.255100   0.000000
                CHANNELS 3 Zrotation Xrotation Yrotation
                JOINT Head
                {
                    OFFSET   0.000000  14.370100   1.956600
                    CHANNELS 3 Zrotation Xrotation Yrotation
                    End Site
                    {
                        OFFSET   0.000000  19.566000   0.000000
                    }
                }
            }
            JOINT LeftCollar
            {
                OFFSET   3.911900  19.017000  -0.467063
                CHANNELS 3 Zrotation Xrotation Yrotation
                JOINT LeftShoulder
                {
                    OFFSET  10.383700   0.000000   0.000000
                    CHANNELS 3 Zrotation Xrotation Yrotation
                    JOINT LeftElbow
                    {
                        OFFSET  26.662100   0.001193   0.000980
                        CHANNELS 3 Zrotation Xrotation Yrotation
                        JOINT LeftWrist
                        {
                            OFFSET  28.869000  -0.000059  -0.000082
                            CHANNELS 3 Zrotation Xrotation Yrotation
                            JOINT LeftFinger0
                            {
                                OFFSET   2.044650  -2.323450   3.252850
                                CHANNELS 3 Zrotation Xrotation Yrotation
                                JOINT LeftFinger01
                                {
                                    OFFSET   3.088130   0.000000   0.000000
                                    CHANNELS 3 Zrotation Xrotation Yrotation
                                    JOINT LeftFinger02
                                    {
                                        OFFSET   2.639460   0.000000   0.000000
                                        CHANNELS 3 Zrotation Xrotation Yrotation
                                        End Site
                                        {
                                            OFFSET   2.582190   0.000000   0.000000
                                        }
                                    }
                                }
                            }
                            JOINT LeftFinger1
                            {
                                OFFSET   8.364480   0.000000   3.252850
                                CHANNELS 3 Zrotation Xrotation Yrotation
                                JOINT LeftFinger11
                                {
                                    OFFSET   4.646930   0.000000   0.000000
                                    CHANNELS 3 Zrotation Xrotation Yrotation
                                    JOINT LeftFinger12
                                    {
                                        OFFSET   2.323470   0.000000   0.000000
                                        CHANNELS 3 Zrotation Xrotation Yrotation
                                        End Site
                                        {
                                            OFFSET   2.273050   0.000000   0.000000
                                        }
                                    }
                                }
                            }
                            JOINT LeftFinger2
                            {
                                OFFSET   8.364490   0.000016   1.078090
                                CHANNELS 3 Zrotation Xrotation Yrotation
                                JOINT LeftFinger21
                                {
                                    OFFSET   5.111610   0.000000   0.000000
                                    CHANNELS 3 Zrotation Xrotation Yrotation
                                    JOINT LeftFinger22
                                    {
                                        OFFSET   2.788150   0.000016   0.000000
                                        CHANNELS 3 Zrotation Xrotation Yrotation
                                        End Site
                                        {
                                            OFFSET   2.727660   0.000000   0.000000
                                        }
                                    }
                                }
                            }
                            JOINT LeftFinger3
                            {
                                OFFSET   7.899780   0.000015  -1.078090
                                CHANNELS 3 Zrotation Xrotation Yrotation
                                JOINT LeftFinger31
                                {
                                    OFFSET   4.646930   0.000000   0.000000
                                    CHANNELS 3 Zrotation Xrotation Yrotation
                                    JOINT LeftFinger32
                                    {
                                        OFFSET   2.323470   0.000000   0.000000
                                        CHANNELS 3 Zrotation Xrotation Yrotation
                                        End Site
                                        {
                                            OFFSET   2.273050   0.000000   0.000000
                                        }
                                    }
                                }
                            }
                            JOINT LeftFinger4
                            {
                                OFFSET   7.435090   0.000000  -3.252850
                                CHANNELS 3 Zrotation Xrotation Yrotation
                                JOINT LeftFinger41
                                {
                                    OFFSET   3.717550   0.000000   0.000000
                                    CHANNELS 3 Zrotation Xrotation Yrotation
                                    JOINT LeftFinger42
                                    {
                                        OFFSET   1.858770   0.000000   0.000000
                                        CHANNELS 3 Zrotation Xrotation Yrotation
                                        End Site
                                        {
                                            OFFSET   1.818440   0.000000   0.000000
                                        }
                                    }
                                }
                            }
                        }
                    }
                }
            }
            JOINT RightCollar
            {
                OFFSET  -3.911910  19.017000  -0.467062
                CHANNELS 3 Zrotation Xrotation Yrotation
                JOINT RightShoulder
                {
                    OFFSET -10.383700   0.000014   0.000000
                    CHANNELS 3 Zrotation Xrotation Yrotation
                    JOINT RightElbow
                    {
                        OFFSET -26.662100   0.001225   0.001091
                        CHANNELS 3 Zrotation Xrotation Yrotation
                        JOINT RightWrist
                        {
                            OFFSET -28.869000  -0.000020  -0.000085
                            CHANNELS 3 Zrotation Xrotation Yrotation
                            JOINT RightFinger0
                            {
                                OFFSET  -2.044650  -2.323490   3.252850
                                CHANNELS 3 Zrotation Xrotation Yrotation
                                JOINT RightFinger01
                                {
                                    OFFSET  -3.088130   0.000000   0.000000
                                    CHANNELS 3 Zrotation Xrotation Yrotation
                                    JOINT RightFinger02
                                    {
                                        OFFSET  -2.639460   0.000000   0.000000
                                        CHANNELS 3 Zrotation Xrotation Yrotation
                                        End Site
                                        {
                                            OFFSET  -2.582190   0.000000   0.000000
                                        }
                                    }
                                }
                            }
                            JOINT RightFinger1
                            {
                                OFFSET  -8.364480   0.000000   3.252850
                                CHANNELS 3 Zrotation Xrotation Yrotation
                                JOINT RightFinger11
                                {
                                    OFFSET  -4.646930   0.000000   0.000000
                                    CHANNELS 3 Zrotation Xrotation Yrotation
                                    JOINT RightFinger12
                                    {
                                        OFFSET  -2.323470   0.000000   0.000000
                                        CHANNELS 3 Zrotation Xrotation Yrotation
                                        End Site
                                        {
                                            OFFSET  -2.273050   0.000000   0.000000
                                        }
                                    }
                                }
                            }
                            JOINT RightFinger2
                            {
                                OFFSET  -8.364480   0.000000   1.078090
                                CHANNELS 3 Zrotation Xrotation Yrotation
                                JOINT RightFinger21
                                {
                                    OFFSET  -5.111620   0.000000   0.000000
                                    CHANNELS 3 Zrotation Xrotation Yrotation
                                    JOINT RightFinger22
                                    {
                                        OFFSET  -2.788160   0.000000   0.000000
                                        CHANNELS 3 Zrotation Xrotation Yrotation
                                        End Site
                                        {
                                            OFFSET  -2.727660   0.000000   0.000000
                                        }
                                    }
                                }
                            }
                            JOINT RightFinger3
                            {
                                OFFSET  -7.899780   0.000000  -1.078090
                                CHANNELS 3 Zrotation Xrotation Yrotation
                                JOINT RightFinger31
                                {
                                    OFFSET  -4.646930   0.000000   0.000000
                                    CHANNELS 3 Zrotation Xrotation Yrotation
                                    JOINT RightFinger32
                                    {
                                        OFFSET  -2.323470   0.000000   0.000000
                                        CHANNELS 3 Zrotation Xrotation Yrotation
                                        End Site
                                        {
                                            OFFSET  -2.273050   0.000000   0.000000
                                        }
                                    }
                                }
                            }
                            JOINT RightFinger4
                            {
                                OFFSET  -7.435090   0.000000  -3.252850
                                CHANNELS 3 Zrotation Xrotation Yrotation
                                JOINT RightFinger41
                                {
                                    OFFSET  -3.717550   0.000000   0.000000
                                    CHANNELS 3 Zrotation Xrotation Yrotation
                                    JOINT RightFinger42
                                    {
                                        OFFSET  -1.858760   0.000000   0.000000
                                        CHANNELS 3 Zrotation Xrotation Yrotation
                                        End Site
                                        {
                                            OFFSET  -1.818440   0.000000   0.000000
                                        }
                                    }
                                }
                            }
                        }
                    }
                }
            }
        }
    }
    JOINT LeftHip
    {
        OFFSET   9.783030   0.000000   0.000000
        CHANNELS 3 Zrotation Xrotation Yrotation
        JOINT LeftKnee
        {
            OFFSET   0.000063 -41.789100   0.000608
            CHANNELS 3 Zrotation Xrotation Yrotation
            JOINT LeftAnkle
            {
                OFFSET   0.000048 -41.133200  -0.000184
                CHANNELS 3 Zrotation Xrotation Yrotation
                JOINT LeftToe
                {
                    OFFSET   0.000000  -6.358960  14.674500
                    CHANNELS 3 Zrotation Xrotation Yrotation
                    End Site
                    {
                        OFFSET   0.000000   0.000000   3.913200
                    }
                }
            }
        }
    }
    JOINT RightHip
    {
        OFFSET  -9.783030   0.000000   0.000000
        CHANNELS 3 Zrotation Xrotation Yrotation
        JOINT RightKnee
        {
            OFFSET   0.000071 -41.789100   0.001239
            CHANNELS 3 Zrotation Xrotation Yrotation
            JOINT RightAnkle
            {
                OFFSET   0.000037 -41.133200  -0.000166
                CHANNELS 3 Zrotation Xrotation Yrotation
                JOINT RightToe
                {
                    OFFSET   0.000000  -6.358960  14.674500
                    CHANNELS 3 Zrotation Xrotation Yrotation
                    End Site
                    {
                        OFFSET   0.000000   0.000000   3.913200
                    }
                }
            }
        }
    }
}
MOTION
Frames: 4
Frame Time:   0.016667
  0.089576  89.599700  -2.955640  -2.196450  -7.446410  -3.976200   0.625045   4.438810   0.060797   1.251020   8.878030   0.073167   1.306890  -0.252894  -0.001606   2.146070  -0.512436   1.789270  -4.656230  -0.585448   0.499648 -73.950300  22.141500  -2.117430  -2.195210  -6.231260 -16.036400  17.665100 -14.777400   6.861920  37.634800  34.265800 -69.205800 -33.014300   0.001743   0.001173 -11.501000   0.002853   0.005164 -31.538800   6.261840 -10.080200 -26.256500  -0.003140   0.012477 -18.375500  -0.002008  -0.000918 -28.547200  -0.832874   1.530350 -36.884800  -0.001231   0.000474 -24.559300  -0.000567  -0.000531 -28.213600  -0.823766   1.535260 -33.570200  -0.003036   0.000000 -22.357800   0.000105  -0.001991 -30.905100  -0.895259   1.494710 -46.386500  -0.002433   0.000558 -30.886300   0.000100  -0.002005   9.301750   0.426102   5.332280  71.616000  13.282200  -5.579960  -1.735550  -4.658210  15.189700 -13.113100  -9.021720   2.340610 -42.178800  36.210400  77.441100  24.412100  -0.000613   0.000357   7.206050   0.004525  -0.009978  38.102200  10.541500  13.132400  32.170100  -0.013116  -0.000962  22.519000   0.000356  -0.000391  28.241300   2.580150   4.790430  34.660000  -0.000565  -0.001266  23.083500  -0.000350  -0.000636  26.317100   1.026360   2.052030  26.335500  -0.009829   0.004865  17.539400  -0.000246   0.007853  31.349800   1.008850   1.662400  47.046800  -0.002527   0.001339  31.333100   0.002680   0.001425   1.719500   7.766090   1.854390   1.411090   0.106493   4.337270  -1.603390  -1.823480   1.515570   0.000000   0.000000   0.000000   4.707750   3.237760   0.572157  -3.387040   8.156350  -1.411040  -1.811530  -6.880040  -4.718330   0.000000   0.000000   0.000000
  0.089679  89.599700  -2.955880  -2.190800  -7.447530  -3.980480   0.615444   4.447460   0.061016   1.231720   8.895320   0.074254   1.306890  -0.239139  -0.001608   2.146170  -0.484397   1.788970  -4.656450  -0.585532   0.486402 -73.937100  22.155000  -2.117690  -2.200780  -6.260130 -16.015800  17.665200 -14.778200   6.861940  37.628700  34.250800 -69.210500 -33.004700   0.001745   0.001210 -11.501100   0.002853   0.005152 -31.543700   6.264070 -10.080700 -26.260800  -0.003143   0.012479 -18.380300  -0.002004  -0.000919 -28.547700  -0.823517   1.513140 -36.887800  -0.001232   0.000475 -24.563900  -0.000572  -0.000533 -28.214100  -0.814528   1.517990 -33.577300  -0.003039   0.000000 -22.362500   0.000106  -0.001992 -30.909300  -0.885206   1.477900 -46.387500  -0.002437   0.000557 -30.890100   0.000099  -0.002006   9.301920   0.425470   5.321530  71.631600  13.300000  -5.580380  -1.717820  -4.675580  15.195500 -13.088600  -9.002340   2.361650 -42.189600  36.220700  77.463500  24.398500  -0.000613   0.000353   7.199220   0.004522  -0.009987  38.086800  10.569800  13.172700  32.163900  -0.013118  -0.000968  22.514700   0.000350  -0.000401  28.238600   2.596110   4.820500  34.645200  -0.000565  -0.001269  23.073600  -0.000350  -0.000642  26.316400   1.026360   2.061300  26.334900  -0.009825   0.004859  17.539000  -0.000250   0.007847  31.343000   1.008850   1.662550  47.036600  -0.002528   0.001328  31.326300   0.002682   0.001416   1.711650   7.793620   1.849910   1.411770   0.056322   4.345620  -1.601210  -1.800980   1.517430  -0.000000   0.000000   0.000000   4.704800   3.238090   0.565278  -3.386370   8.154950  -1.416080  -1.792530  -6.872520  -4.704340   0.000000   0.000000   0.000000
  0.089783  89.599700  -2.956120  -2.182980  -7.450720  -3.988840   0.601181   4.461730   0.061320   1.203060   8.923850   0.075817   1.306870  -0.215421  -0.001611   2.145650  -0.436148   1.788660  -4.656730  -0.585615   0.473155 -73.916600  22.177400  -2.118090  -2.209800  -6.305040 -15.986000  17.665700 -14.782500   6.862080  37.614800  34.230700 -69.212100 -32.995000   0.001748   0.001247 -11.501200   0.002852   0.005141 -31.553000   6.269390 -10.083700 -26.269100  -0.003147   0.012480 -18.388400  -0.002000  -0.000921 -28.548400  -0.809717   1.487720 -36.897400  -0.001238   0.000476 -24.573700  -0.000584  -0.000535 -28.214900  -0.800908   1.492480 -33.592000  -0.003045  -0.000000 -22.372300   0.000107  -0.001993 -30.917200  -0.870428   1.453040 -46.392400  -0.002447   0.000557 -30.897300   0.000097  -0.002007   9.302160   0.424842   5.306170  71.650900  13.325700  -5.580990  -1.696340  -4.692700  15.212200 -13.054300  -8.975940   2.391000 -42.217800  36.239900  77.494400  24.374400  -0.000612   0.000347   7.187170   0.004511  -0.010008  38.058000  10.608800  13.232700  32.148000  -0.013121  -0.000986  22.503600   0.000332  -0.000423  28.234700   2.618740   4.863420  34.612800  -0.000559  -0.001282  23.052100  -0.000351  -0.000655  26.312100   1.026350   2.074520  26.330700  -0.009816   0.004841  17.536300  -0.000260   0.007833  31.330100   1.008850   1.662700  47.017200  -0.002534   0.001294  31.313400   0.002687   0.001392   1.701230   7.821180   1.841250   1.412470   0.006152   4.359650  -1.598940  -1.778470   1.522480  -0.000000   0.000000  -0.000000   4.698100   3.240410   0.558400  -3.385070   8.152630  -1.425720  -1.756920  -6.861210  -4.683660   0.000000   0.000000   0.000000
  0.089508  89.599700  -2.954750  -2.179730  -7.456280  -3.997810   0.593374   4.472910   0.061422   1.187380   8.946220   0.076525   1.301970  -0.194111  -0.001600   2.137930  -0.393027   1.788740  -4.656960  -0.577670   0.473568 -73.903000  22.200000  -2.118420  -2.218570  -6.340290 -15.969800  17.662800 -14.794300   6.856300  37.601700  34.219800 -69.199600 -32.995500   0.001748   0.001247 -11.501400   0.002853   0.005145 -31.565900   6.278140 -10.092300 -26.280600  -0.003144   0.012481 -18.396700  -0.002003  -0.000929 -28.548800  -0.802354   1.473920 -36.917400  -0.001248   0.000475 -24.587400  -0.000602  -0.000536 -28.215200  -0.793657   1.478620 -33.615500  -0.003049  -0.000000 -22.388000   0.000105  -0.001994 -30.926100  -0.862689   1.439460 -46.404600  -0.002462   0.000557 -30.906000   0.000096  -0.002006   9.301940   0.429052   5.299860  71.654500  13.334300  -5.578780  -1.694150  -4.678180  15.244000 -13.039300  -8.967200   2.403210 -42.264900  36.265100  77.506300  24.351600  -0.000630   0.000340   7.175770   0.004491  -0.010040  38.018900  10.623600  13.270800  32.119900  -0.013125  -0.001016  22.484000   0.000299  -0.000455  28.228600   2.629470   4.884710  34.557900  -0.000538  -0.001309  23.015500  -0.000350  -0.000677  26.293400   1.026450   2.080050  26.312100  -0.009798   0.004808  17.523900  -0.000277   0.007812  31.313000   1.009380   1.662320  46.991400  -0.002544   0.001237  31.296300   0.002696   0.001354   1.697950   7.818640   1.829110   1.410490   0.033455   4.372110  -1.599830  -1.798380   1.531000   0.000000   0.000000   0.000000   4.688000   3.248100   0.563729  -3.379020   8.150410  -1.436210  -1.718490  -6.854640  -4.675410  -0.000000   0.000000  -0.000000
